<svg width="42" height="39" viewBox="0 0 42 39" fill="none" xmlns="http://www.w3.org/2000/svg">
<circle cx="14.0061" cy="14.0061" r="14.0061" fill="url(#paint0_linear_54622_577)"/>
<circle cx="25.8596" cy="19.4401" r="14.0061" transform="rotate(-8.57888 25.8596 19.4401)" fill="url(#paint1_linear_54622_577)" fill-opacity="0.7"/>
<path d="M12.1651 10.2377L32.0658 10.2376M12.1651 10.2377L6.79519 16.5553M12.1651 10.2377L15.6399 16.5553M12.1651 10.2377L22.1155 10.2377M37.1199 16.5553L6.79519 16.5553M37.1199 16.5553L21.9576 37.0875M37.1199 16.5553L27.9593 16.5553M37.1199 16.5553L32.0658 10.2376M27.9593 16.5553L22.1155 10.2377M27.9593 16.5553L6.79519 16.5553M27.9593 16.5553L21.9576 37.0875M27.9593 16.5553L32.0658 10.2376M21.9576 37.0875L6.79519 16.5553M21.9576 37.0875L15.6399 16.5553M15.6399 16.5553L22.1155 10.2377" stroke="#004581" stroke-width="1.5"/>
<defs>
<linearGradient id="paint0_linear_54622_577" x1="28.0122" y1="22.1022" x2="-5.83587" y2="2.33435" gradientUnits="userSpaceOnUse">
<stop offset="0.260558" stop-color="#FBBA61"/>
<stop offset="1" stop-color="white" stop-opacity="0"/>
</linearGradient>
<linearGradient id="paint1_linear_54622_577" x1="55.0389" y1="33.4462" x2="22.1734" y2="15.2708" gradientUnits="userSpaceOnUse">
<stop stop-color="white" stop-opacity="0"/>
<stop offset="0.253995" stop-color="#FBCEBF" stop-opacity="0.297352"/>
<stop offset="1" stop-color="#F15928"/>
</linearGradient>
</defs>
</svg>
