<svg width="42" height="36" viewBox="0 0 42 36" fill="none" xmlns="http://www.w3.org/2000/svg">
<circle cx="14.0061" cy="14.0061" r="14.0061" fill="url(#paint0_linear_54622_579)"/>
<circle cx="25.8596" cy="19.4401" r="14.0061" transform="rotate(-8.57888 25.8596 19.4401)" fill="url(#paint1_linear_54622_579)" fill-opacity="0.7"/>
<path d="M9.25917 14.046L20.8992 20.8371L32.5392 14.046M20.8992 34.3788V20.8236M32.8992 26.2027V15.4446C32.8987 14.9729 32.7752 14.5097 32.5412 14.1014C32.3072 13.6931 31.9708 13.354 31.5658 13.1181L22.2325 7.73911C21.8271 7.50306 21.3673 7.37878 20.8992 7.37878C20.4311 7.37878 19.9712 7.50306 19.5658 7.73911L10.2325 13.1181C9.82752 13.354 9.49114 13.6931 9.25712 14.1014C9.02309 14.5097 8.89965 14.9729 8.89917 15.4446V26.2027C8.89965 26.6743 9.02309 27.1375 9.25712 27.5458C9.49114 27.9542 9.82752 28.2933 10.2325 28.5291L19.5658 33.9081C19.9712 34.1442 20.4311 34.2684 20.8992 34.2684C21.3673 34.2684 21.8271 34.1442 22.2325 33.9081L31.5658 28.5291C31.9708 28.2933 32.3072 27.9542 32.5412 27.5458C32.7752 27.1375 32.8987 26.6743 32.8992 26.2027Z" stroke="#004581" stroke-width="1.5" stroke-linecap="round" stroke-linejoin="round"/>
<defs>
<linearGradient id="paint0_linear_54622_579" x1="28.0122" y1="22.1022" x2="-5.83587" y2="2.33435" gradientUnits="userSpaceOnUse">
<stop offset="0.260558" stop-color="#FBBA61"/>
<stop offset="1" stop-color="white" stop-opacity="0"/>
</linearGradient>
<linearGradient id="paint1_linear_54622_579" x1="55.0389" y1="33.4462" x2="22.1734" y2="15.2708" gradientUnits="userSpaceOnUse">
<stop stop-color="white" stop-opacity="0"/>
<stop offset="0.253995" stop-color="#FBCEBF" stop-opacity="0.297352"/>
<stop offset="1" stop-color="#F15928"/>
</linearGradient>
</defs>
</svg>
